<svg data-v-fde0c5aa="" xmlns="http://www.w3.org/2000/svg" viewBox="0 0 300 300" class="iconLeft"><!----><defs data-v-fde0c5aa=""><!----></defs><rect data-v-fde0c5aa="" fill="#2F3A94" x="0" y="0" width="300px" height="300px" class="logo-background-square"></rect><defs data-v-fde0c5aa=""><!----></defs><g data-v-fde0c5aa="" id="558fde63-85b3-46ab-9e9b-2488df631c5c" fill="#ffffff" transform="matrix(2.6842798366856444,0,0,2.6842798366856444,107.4523706861273,134.95461146417838)"><path d="M2.58 10.50L4.75 10.50L4.75 0.71L2.69 0.71L0.73 2.10L0.73 3.74L2.58 2.49ZM12.26 5.61C12.26 8.04 11.65 8.96 10.71 8.96C9.74 8.96 9.13 7.87 9.13 5.61C9.13 3.12 9.69 2.24 10.70 2.24C11.65 2.24 12.26 3.12 12.26 5.61ZM14.50 5.61C14.50 1.69 12.68 0.57 10.74 0.57C8.76 0.57 6.92 1.69 6.92 5.61C6.92 9.16 8.68 10.64 10.70 10.64C12.89 10.64 14.50 9.16 14.50 5.61ZM20.94 5.61C20.94 8.04 20.33 8.96 19.39 8.96C18.42 8.96 17.81 7.87 17.81 5.61C17.81 3.12 18.37 2.24 19.38 2.24C20.33 2.24 20.94 3.12 20.94 5.61ZM23.18 5.61C23.18 1.69 21.36 0.57 19.42 0.57C17.44 0.57 15.60 1.69 15.60 5.61C15.60 9.16 17.36 10.64 19.38 10.64C21.57 10.64 23.18 9.16 23.18 5.61ZM31.28 5.56C31.28 7.66 30.13 8.78 28.60 8.78L26.99 8.78L26.99 2.44L28.32 2.44C30.07 2.44 31.28 3.37 31.28 5.56ZM33.54 5.56C33.54 2.23 31.39 0.71 28.36 0.71L24.75 0.71L24.75 10.50L28.78 10.50C31.46 10.50 33.54 8.78 33.54 5.56ZM38.22 10.64C40.53 10.64 41.26 9.55 41.54 8.33L39.47 8.20C39.34 8.93 38.98 9.24 38.29 9.24C37.24 9.24 36.90 8.30 36.90 7.35L36.90 7.15L41.65 7.15C41.65 7.15 41.68 6.83 41.68 6.50C41.68 4.41 40.82 2.86 38.23 2.86C36.23 2.86 34.58 3.78 34.58 6.71C34.58 9.35 35.88 10.64 38.22 10.64ZM38.19 4.17C38.95 4.17 39.42 4.56 39.42 5.87L39.42 5.89L36.90 5.89C36.95 4.56 37.48 4.17 38.19 4.17ZM47.35 10.50L49.95 3.00L47.80 3.00L46.61 7L46.10 8.81L45.58 7L44.30 3.00L42.10 3.00L44.79 10.50ZM56.83 8.19C56.83 6.68 55.71 6.19 54.17 5.84C52.70 5.50 52.53 5.26 52.53 4.83C52.53 4.49 52.79 4.21 53.47 4.21C54.10 4.21 54.57 4.52 54.60 5.11L56.63 4.97C56.46 3.75 55.33 2.86 53.54 2.86C51.58 2.86 50.54 3.77 50.54 5.11C50.54 6.34 51.16 7.08 53.05 7.52C54.26 7.80 54.63 7.99 54.63 8.50C54.63 8.96 54.29 9.24 53.55 9.24C52.68 9.24 52.36 8.72 52.30 8.22L50.32 8.44C50.48 9.59 51.32 10.64 53.58 10.64C55.73 10.64 56.83 9.73 56.83 8.19Z"></path></g><defs data-v-fde0c5aa=""><!----></defs><g data-v-fde0c5aa="" id="add2c694-298d-4131-9bd2-559d236fe2c1" stroke="none" fill="#6979D1" transform="matrix(1.7628717193158248,0,0,1.7628717193158248,40.000000315226025,122.67548835060472)"><path d="M17.063 4l-.031.156-5 22-.188.844h3.094l.031-.156 5-22L20.157 4h-3.094zM10 7l-.406.313-9 7-.594.469v1.438l.594.469 9 7 .406.313v-3.781l-6.063-4.719L10 10.783V7.002zm12 0v3.781l6.063 4.719L22 20.219V24l.406-.313 9-7 .594-.469V14.78l-.594-.469-9-7L22 6.998z"></path></g><!----></svg>